<mxfile host="app.diagrams.net" agent="Mozilla/5.0 (Windows NT 10.0; Win64; x64) AppleWebKit/537.36 (KHTML, like Gecko) Chrome/134.0.0.0 Safari/537.36" version="26.1.3">
  <diagram name="PÃ¡gina-1" id="3oZNGvRHGXvSDeU4WSFd">
    <mxGraphModel dx="880" dy="434" grid="1" gridSize="10" guides="1" tooltips="1" connect="1" arrows="1" fold="1" page="1" pageScale="1" pageWidth="827" pageHeight="1169" math="0" shadow="0">
      <root>
        <mxCell id="0" />
        <mxCell id="1" parent="0" />
        <mxCell id="hXnussSTuuInWZmzKpQ6-1" value="Funcionario" style="whiteSpace=wrap;html=1;align=center;" vertex="1" parent="1">
          <mxGeometry x="60" y="230" width="100" height="40" as="geometry" />
        </mxCell>
        <mxCell id="hXnussSTuuInWZmzKpQ6-2" value="Hotel" style="whiteSpace=wrap;html=1;align=center;" vertex="1" parent="1">
          <mxGeometry x="570" y="20" width="100" height="40" as="geometry" />
        </mxCell>
        <mxCell id="hXnussSTuuInWZmzKpQ6-3" value="Quarto" style="whiteSpace=wrap;html=1;align=center;" vertex="1" parent="1">
          <mxGeometry x="570" y="80" width="100" height="40" as="geometry" />
        </mxCell>
        <mxCell id="hXnussSTuuInWZmzKpQ6-4" value="Hospede" style="whiteSpace=wrap;html=1;align=center;" vertex="1" parent="1">
          <mxGeometry x="570" y="150" width="100" height="40" as="geometry" />
        </mxCell>
        <mxCell id="hXnussSTuuInWZmzKpQ6-5" value="Reserva" style="whiteSpace=wrap;html=1;align=center;" vertex="1" parent="1">
          <mxGeometry x="570" y="230" width="100" height="40" as="geometry" />
        </mxCell>
        <mxCell id="hXnussSTuuInWZmzKpQ6-6" value="Pagamento" style="whiteSpace=wrap;html=1;align=center;" vertex="1" parent="1">
          <mxGeometry x="570" y="300" width="100" height="40" as="geometry" />
        </mxCell>
        <mxCell id="hXnussSTuuInWZmzKpQ6-7" value="" style="endArrow=oval;html=1;rounded=1;curved=0;endFill=1;" edge="1" parent="1">
          <mxGeometry width="50" height="50" relative="1" as="geometry">
            <mxPoint x="80" y="80" as="sourcePoint" />
            <mxPoint x="120" y="80" as="targetPoint" />
          </mxGeometry>
        </mxCell>
        <mxCell id="hXnussSTuuInWZmzKpQ6-8" value="" style="endArrow=none;html=1;rounded=0;" edge="1" parent="1">
          <mxGeometry width="50" height="50" relative="1" as="geometry">
            <mxPoint x="400" y="260" as="sourcePoint" />
            <mxPoint x="450" y="210" as="targetPoint" />
          </mxGeometry>
        </mxCell>
        <mxCell id="hXnussSTuuInWZmzKpQ6-9" value="" style="endArrow=none;html=1;rounded=0;" edge="1" parent="1">
          <mxGeometry width="50" height="50" relative="1" as="geometry">
            <mxPoint x="410" y="270" as="sourcePoint" />
            <mxPoint x="460" y="220" as="targetPoint" />
          </mxGeometry>
        </mxCell>
        <mxCell id="hXnussSTuuInWZmzKpQ6-10" value="" style="endArrow=none;html=1;rounded=0;" edge="1" parent="1">
          <mxGeometry width="50" height="50" relative="1" as="geometry">
            <mxPoint x="420" y="280" as="sourcePoint" />
            <mxPoint x="470" y="230" as="targetPoint" />
          </mxGeometry>
        </mxCell>
        <mxCell id="hXnussSTuuInWZmzKpQ6-11" value="CPF (PK)" style="text;html=1;align=center;verticalAlign=middle;whiteSpace=wrap;rounded=0;" vertex="1" parent="1">
          <mxGeometry x="123" y="65" width="60" height="30" as="geometry" />
        </mxCell>
        <mxCell id="hXnussSTuuInWZmzKpQ6-14" value="" style="endArrow=oval;html=1;rounded=1;curved=0;endFill=0;" edge="1" parent="1">
          <mxGeometry width="50" height="50" relative="1" as="geometry">
            <mxPoint x="80" y="105" as="sourcePoint" />
            <mxPoint x="120" y="105" as="targetPoint" />
          </mxGeometry>
        </mxCell>
        <mxCell id="hXnussSTuuInWZmzKpQ6-15" value="nome" style="text;html=1;align=center;verticalAlign=middle;whiteSpace=wrap;rounded=0;" vertex="1" parent="1">
          <mxGeometry x="116" y="90" width="60" height="30" as="geometry" />
        </mxCell>
        <mxCell id="hXnussSTuuInWZmzKpQ6-16" value="" style="endArrow=oval;html=1;rounded=1;curved=0;endFill=0;" edge="1" parent="1">
          <mxGeometry width="50" height="50" relative="1" as="geometry">
            <mxPoint x="81" y="129" as="sourcePoint" />
            <mxPoint x="121" y="129" as="targetPoint" />
          </mxGeometry>
        </mxCell>
        <mxCell id="hXnussSTuuInWZmzKpQ6-17" value="telefone" style="text;html=1;align=center;verticalAlign=middle;whiteSpace=wrap;rounded=0;" vertex="1" parent="1">
          <mxGeometry x="122" y="113" width="60" height="30" as="geometry" />
        </mxCell>
        <mxCell id="hXnussSTuuInWZmzKpQ6-18" value="" style="endArrow=oval;html=1;rounded=1;curved=0;endFill=0;" edge="1" parent="1">
          <mxGeometry width="50" height="50" relative="1" as="geometry">
            <mxPoint x="81" y="156" as="sourcePoint" />
            <mxPoint x="121" y="156" as="targetPoint" />
          </mxGeometry>
        </mxCell>
        <mxCell id="hXnussSTuuInWZmzKpQ6-19" value="email" style="text;html=1;align=center;verticalAlign=middle;whiteSpace=wrap;rounded=0;" vertex="1" parent="1">
          <mxGeometry x="122" y="140" width="60" height="30" as="geometry" />
        </mxCell>
        <mxCell id="hXnussSTuuInWZmzKpQ6-21" value="" style="endArrow=oval;html=1;rounded=1;curved=0;endFill=0;" edge="1" parent="1">
          <mxGeometry width="50" height="50" relative="1" as="geometry">
            <mxPoint x="81" y="175" as="sourcePoint" />
            <mxPoint x="121" y="175" as="targetPoint" />
          </mxGeometry>
        </mxCell>
        <mxCell id="hXnussSTuuInWZmzKpQ6-22" value="login" style="text;html=1;align=center;verticalAlign=middle;whiteSpace=wrap;rounded=0;" vertex="1" parent="1">
          <mxGeometry x="123" y="160" width="60" height="30" as="geometry" />
        </mxCell>
        <mxCell id="hXnussSTuuInWZmzKpQ6-23" value="" style="endArrow=oval;html=1;rounded=1;curved=0;endFill=0;" edge="1" parent="1">
          <mxGeometry width="50" height="50" relative="1" as="geometry">
            <mxPoint x="83" y="195" as="sourcePoint" />
            <mxPoint x="123" y="195" as="targetPoint" />
          </mxGeometry>
        </mxCell>
        <mxCell id="hXnussSTuuInWZmzKpQ6-24" value="senha" style="text;html=1;align=center;verticalAlign=middle;whiteSpace=wrap;rounded=0;" vertex="1" parent="1">
          <mxGeometry x="125" y="180" width="60" height="30" as="geometry" />
        </mxCell>
      </root>
    </mxGraphModel>
  </diagram>
</mxfile>
